<mxfile host="app.diagrams.net" modified="2022-11-30T03:43:57.375Z" agent="5.0 (Windows NT 10.0; Win64; x64) AppleWebKit/537.36 (KHTML, like Gecko) Chrome/107.0.0.0 Safari/537.36" etag="Q06-nsxCx1xNxq3YhcNJ" version="20.6.0" type="github">
  <diagram id="prtHgNgQTEPvFCAcTncT" name="Page-1">
    <mxGraphModel dx="1422" dy="786" grid="0" gridSize="10" guides="1" tooltips="1" connect="1" arrows="1" fold="1" page="1" pageScale="1" pageWidth="827" pageHeight="1169" background="#F1FAEE" math="0" shadow="0">
      <root>
        <mxCell id="0" />
        <mxCell id="1" parent="0" />
        <mxCell id="cc9nFWCGJF7RGaZk1ZOp-53" value="本厂数据准备" style="swimlane;horizontal=0;whiteSpace=wrap;html=1;dashed=1;dashPattern=1 4;fillColor=#A8DADC;strokeColor=#457B9D;fontColor=#1D3557;" parent="1" vertex="1">
          <mxGeometry x="94" y="400" width="643" height="200" as="geometry" />
        </mxCell>
        <mxCell id="cc9nFWCGJF7RGaZk1ZOp-65" value="流程启动生成本厂数据" style="rounded=1;whiteSpace=wrap;html=1;fillColor=#A8DADC;strokeColor=#457B9D;fontColor=#1D3557;" parent="cc9nFWCGJF7RGaZk1ZOp-53" vertex="1">
          <mxGeometry x="410" y="70" width="140" height="60" as="geometry" />
        </mxCell>
        <mxCell id="cc9nFWCGJF7RGaZk1ZOp-84" value="XBRL勾稽校验" style="rounded=1;whiteSpace=wrap;html=1;fillColor=#A8DADC;strokeColor=#457B9D;fontColor=#1D3557;" parent="1" vertex="1">
          <mxGeometry x="942" y="94.5" width="120" height="60" as="geometry" />
        </mxCell>
        <mxCell id="cc9nFWCGJF7RGaZk1ZOp-86" value="核对" style="swimlane;whiteSpace=wrap;html=1;fillColor=#A8DADC;strokeColor=#457B9D;fontColor=#1D3557;" parent="1" vertex="1">
          <mxGeometry x="1047" y="299" width="200" height="200" as="geometry" />
        </mxCell>
        <mxCell id="cc9nFWCGJF7RGaZk1ZOp-87" value="XBRL数字核对" style="rounded=1;whiteSpace=wrap;html=1;fillColor=#A8DADC;strokeColor=#457B9D;fontColor=#1D3557;" parent="cc9nFWCGJF7RGaZk1ZOp-86" vertex="1">
          <mxGeometry x="40" y="39" width="120" height="60" as="geometry" />
        </mxCell>
        <mxCell id="cc9nFWCGJF7RGaZk1ZOp-88" value="XBRL文字核对" style="rounded=1;whiteSpace=wrap;html=1;fillColor=#A8DADC;strokeColor=#457B9D;fontColor=#1D3557;" parent="cc9nFWCGJF7RGaZk1ZOp-86" vertex="1">
          <mxGeometry x="41" y="130" width="120" height="60" as="geometry" />
        </mxCell>
        <mxCell id="cc9nFWCGJF7RGaZk1ZOp-93" value="数据准备" style="swimlane;horizontal=0;whiteSpace=wrap;html=1;dashed=1;dashPattern=1 4;fillColor=#A8DADC;strokeColor=#457B9D;fontColor=#1D3557;" parent="1" vertex="1">
          <mxGeometry x="75" y="60" width="662" height="542" as="geometry" />
        </mxCell>
        <mxCell id="cc9nFWCGJF7RGaZk1ZOp-94" value="" style="swimlane;startSize=0;dashed=1;dashPattern=1 4;fillColor=#A8DADC;strokeColor=#457B9D;fontColor=#1D3557;" parent="cc9nFWCGJF7RGaZk1ZOp-93" vertex="1">
          <mxGeometry x="43" y="340" width="272" height="200" as="geometry" />
        </mxCell>
        <mxCell id="cc9nFWCGJF7RGaZk1ZOp-95" value="模块任务配置" style="rounded=1;whiteSpace=wrap;html=1;fillColor=#A8DADC;strokeColor=#457B9D;fontColor=#1D3557;" parent="cc9nFWCGJF7RGaZk1ZOp-94" vertex="1">
          <mxGeometry x="80" y="25" width="120" height="60" as="geometry" />
        </mxCell>
        <mxCell id="cc9nFWCGJF7RGaZk1ZOp-96" value="流程配置" style="rounded=1;whiteSpace=wrap;html=1;fillColor=#A8DADC;strokeColor=#457B9D;fontColor=#1D3557;" parent="cc9nFWCGJF7RGaZk1ZOp-94" vertex="1">
          <mxGeometry x="80" y="117" width="120" height="60" as="geometry" />
        </mxCell>
        <mxCell id="cc9nFWCGJF7RGaZk1ZOp-99" value="通用配置" style="swimlane;horizontal=0;whiteSpace=wrap;html=1;dashed=1;dashPattern=1 4;fillColor=#A8DADC;strokeColor=#457B9D;fontColor=#1D3557;" parent="cc9nFWCGJF7RGaZk1ZOp-93" vertex="1">
          <mxGeometry x="24" y="2" width="635" height="230" as="geometry" />
        </mxCell>
        <mxCell id="cc9nFWCGJF7RGaZk1ZOp-100" value="" style="swimlane;startSize=0;dashed=1;dashPattern=1 4;fillColor=#A8DADC;strokeColor=#457B9D;fontColor=#1D3557;" parent="cc9nFWCGJF7RGaZk1ZOp-99" vertex="1">
          <mxGeometry x="24" width="610" height="125" as="geometry" />
        </mxCell>
        <mxCell id="cc9nFWCGJF7RGaZk1ZOp-54" value="勾稽规则配置" style="rounded=1;whiteSpace=wrap;html=1;fillColor=#A8DADC;strokeColor=#457B9D;fontColor=#1D3557;" parent="cc9nFWCGJF7RGaZk1ZOp-100" vertex="1">
          <mxGeometry x="180" y="38" width="120" height="60" as="geometry" />
        </mxCell>
        <mxCell id="cc9nFWCGJF7RGaZk1ZOp-55" value="章节配置" style="rounded=1;whiteSpace=wrap;html=1;fillColor=#A8DADC;strokeColor=#457B9D;fontColor=#1D3557;" parent="cc9nFWCGJF7RGaZk1ZOp-99" vertex="1">
          <mxGeometry x="84" y="151" width="120" height="60" as="geometry" />
        </mxCell>
        <mxCell id="cc9nFWCGJF7RGaZk1ZOp-58" value="文字规则配置" style="rounded=1;whiteSpace=wrap;html=1;fillColor=#A8DADC;strokeColor=#457B9D;fontColor=#1D3557;" parent="cc9nFWCGJF7RGaZk1ZOp-99" vertex="1">
          <mxGeometry x="342" y="155" width="120" height="60" as="geometry" />
        </mxCell>
        <mxCell id="cc9nFWCGJF7RGaZk1ZOp-36" value="友商数据生成" style="swimlane;horizontal=0;whiteSpace=wrap;html=1;dashed=1;dashPattern=1 4;fillColor=#A8DADC;strokeColor=#457B9D;fontColor=#1D3557;" parent="cc9nFWCGJF7RGaZk1ZOp-93" vertex="1">
          <mxGeometry x="22" y="230" width="640" height="110" as="geometry" />
        </mxCell>
        <mxCell id="cc9nFWCGJF7RGaZk1ZOp-66" style="edgeStyle=orthogonalEdgeStyle;rounded=0;orthogonalLoop=1;jettySize=auto;html=1;labelBackgroundColor=#F1FAEE;strokeColor=#457B9D;fontColor=#1D3557;" parent="cc9nFWCGJF7RGaZk1ZOp-36" source="cc9nFWCGJF7RGaZk1ZOp-56" target="cc9nFWCGJF7RGaZk1ZOp-59" edge="1">
          <mxGeometry relative="1" as="geometry" />
        </mxCell>
        <mxCell id="cc9nFWCGJF7RGaZk1ZOp-56" value="xml上传" style="rounded=1;whiteSpace=wrap;html=1;fillColor=#A8DADC;strokeColor=#457B9D;fontColor=#1D3557;" parent="cc9nFWCGJF7RGaZk1ZOp-36" vertex="1">
          <mxGeometry x="80" y="25" width="120" height="60" as="geometry" />
        </mxCell>
        <mxCell id="cc9nFWCGJF7RGaZk1ZOp-59" value="xml解析生成友商数据" style="rounded=1;whiteSpace=wrap;html=1;fillColor=#A8DADC;strokeColor=#457B9D;fontColor=#1D3557;" parent="cc9nFWCGJF7RGaZk1ZOp-36" vertex="1">
          <mxGeometry x="350" y="25" width="120" height="60" as="geometry" />
        </mxCell>
        <mxCell id="cc9nFWCGJF7RGaZk1ZOp-97" style="edgeStyle=orthogonalEdgeStyle;rounded=0;orthogonalLoop=1;jettySize=auto;html=1;labelBackgroundColor=#F1FAEE;strokeColor=#457B9D;fontColor=#1D3557;" parent="1" source="cc9nFWCGJF7RGaZk1ZOp-94" target="cc9nFWCGJF7RGaZk1ZOp-65" edge="1">
          <mxGeometry relative="1" as="geometry" />
        </mxCell>
        <mxCell id="bTzoLezuBzL7zJ8S3En9-66" style="edgeStyle=orthogonalEdgeStyle;rounded=0;orthogonalLoop=1;jettySize=auto;html=1;labelBackgroundColor=#F1FAEE;strokeColor=#457B9D;fontColor=#1D3557;" edge="1" parent="1" source="bTzoLezuBzL7zJ8S3En9-62" target="cc9nFWCGJF7RGaZk1ZOp-84">
          <mxGeometry relative="1" as="geometry" />
        </mxCell>
        <mxCell id="bTzoLezuBzL7zJ8S3En9-62" value="" style="shape=line;html=1;strokeWidth=6;strokeColor=#457B9D;direction=south;fillColor=#A8DADC;fontColor=#1D3557;" vertex="1" parent="1">
          <mxGeometry x="840" y="103" width="10" height="44" as="geometry" />
        </mxCell>
        <mxCell id="bTzoLezuBzL7zJ8S3En9-68" style="edgeStyle=orthogonalEdgeStyle;rounded=0;orthogonalLoop=1;jettySize=auto;html=1;exitX=1;exitY=0.5;exitDx=0;exitDy=0;labelBackgroundColor=#F1FAEE;strokeColor=#457B9D;fontColor=#1D3557;" edge="1" parent="1" source="cc9nFWCGJF7RGaZk1ZOp-59" target="bTzoLezuBzL7zJ8S3En9-62">
          <mxGeometry relative="1" as="geometry" />
        </mxCell>
        <mxCell id="bTzoLezuBzL7zJ8S3En9-67" style="edgeStyle=orthogonalEdgeStyle;rounded=0;orthogonalLoop=1;jettySize=auto;html=1;labelBackgroundColor=#F1FAEE;strokeColor=#457B9D;fontColor=#1D3557;" edge="1" parent="1" source="cc9nFWCGJF7RGaZk1ZOp-100" target="bTzoLezuBzL7zJ8S3En9-62">
          <mxGeometry relative="1" as="geometry" />
        </mxCell>
        <mxCell id="bTzoLezuBzL7zJ8S3En9-74" style="edgeStyle=orthogonalEdgeStyle;rounded=0;orthogonalLoop=1;jettySize=auto;html=1;entryX=0;entryY=0.5;entryDx=0;entryDy=0;labelBackgroundColor=#F1FAEE;strokeColor=#457B9D;fontColor=#1D3557;" edge="1" parent="1" source="bTzoLezuBzL7zJ8S3En9-69" target="cc9nFWCGJF7RGaZk1ZOp-86">
          <mxGeometry relative="1" as="geometry" />
        </mxCell>
        <mxCell id="bTzoLezuBzL7zJ8S3En9-69" value="" style="shape=line;html=1;strokeWidth=6;strokeColor=#457B9D;direction=south;fillColor=#A8DADC;fontColor=#1D3557;" vertex="1" parent="1">
          <mxGeometry x="921" y="364" width="10" height="71" as="geometry" />
        </mxCell>
        <mxCell id="bTzoLezuBzL7zJ8S3En9-71" style="edgeStyle=orthogonalEdgeStyle;rounded=0;orthogonalLoop=1;jettySize=auto;html=1;exitX=1;exitY=0.5;exitDx=0;exitDy=0;labelBackgroundColor=#F1FAEE;strokeColor=#457B9D;fontColor=#1D3557;" edge="1" parent="1" source="cc9nFWCGJF7RGaZk1ZOp-58" target="bTzoLezuBzL7zJ8S3En9-69">
          <mxGeometry relative="1" as="geometry" />
        </mxCell>
        <mxCell id="bTzoLezuBzL7zJ8S3En9-72" style="edgeStyle=orthogonalEdgeStyle;rounded=0;orthogonalLoop=1;jettySize=auto;html=1;labelBackgroundColor=#F1FAEE;strokeColor=#457B9D;fontColor=#1D3557;" edge="1" parent="1" source="cc9nFWCGJF7RGaZk1ZOp-65" target="bTzoLezuBzL7zJ8S3En9-69">
          <mxGeometry relative="1" as="geometry">
            <Array as="points">
              <mxPoint x="846" y="500" />
              <mxPoint x="846" y="399" />
            </Array>
          </mxGeometry>
        </mxCell>
        <mxCell id="bTzoLezuBzL7zJ8S3En9-73" style="edgeStyle=orthogonalEdgeStyle;rounded=0;orthogonalLoop=1;jettySize=auto;html=1;exitX=1;exitY=0.5;exitDx=0;exitDy=0;labelBackgroundColor=#F1FAEE;strokeColor=#457B9D;fontColor=#1D3557;" edge="1" parent="1" source="cc9nFWCGJF7RGaZk1ZOp-59" target="bTzoLezuBzL7zJ8S3En9-69">
          <mxGeometry relative="1" as="geometry">
            <Array as="points">
              <mxPoint x="845" y="345" />
              <mxPoint x="845" y="399" />
            </Array>
          </mxGeometry>
        </mxCell>
      </root>
    </mxGraphModel>
  </diagram>
</mxfile>
